# xmcd
#
# Track frame offsets: 
#        150
#        20454
#        36234
#        65784
#        95993
#        133526
#        150241
#        168658
#
# Disc length: 2544 seconds
#
# Revision: 0
# Processed by: cddbd v1.5.2PL0 Copyright (c) Steve Scherf et al.
# Submitted via: ExactAudioCopyFreeDBPlugin 1.0
#
DISCID=6a09ee08
DTITLE=麻生レミ - Own Lines
DYEAR=1976
DGENRE=JPop
TTITLE0=Nothing Doing
TTITLE1=River Deep,Mountain High
TTITLE2=Own Lines
TTITLE3=Stuck For Words
TTITLE4=Everything I Had
TTITLE5=I'd Rather Go Blind
TTITLE6=Same Again
TTITLE7=How Long Would I Last
EXTD=
EXTT0=
EXTT1=
EXTT2=
EXTT3=
EXTT4=
EXTT5=
EXTT6=
EXTT7=
PLAYORDER=
